HIERARCHY
ROOT Hips
{
 OFFSET 0.000000 0.000000 0.000000
 CHANNELS 6 Xposition Yposition Zposition Yrotation Xrotation Zrotation
 JOINT Chest
 {
  OFFSET 0.000000 9.585900 0.002600
  CHANNELS 3 Yrotation Xrotation Zrotation
  JOINT Chest2
  {
   OFFSET 0.000000 9.601200 -0.005300
   CHANNELS 3 Yrotation Xrotation Zrotation
   JOINT Chest3
   {
    OFFSET 0.000000 9.561800 0.000000
    CHANNELS 3 Yrotation Xrotation Zrotation
    JOINT Chest4
    {
     OFFSET 0.000000 9.552100 0.000000
     CHANNELS 3 Yrotation Xrotation Zrotation
     JOINT Neck
     {
      OFFSET 0.000000 14.453000 0.000000
      CHANNELS 3 Yrotation Xrotation Zrotation
      JOINT Head
      {
       OFFSET 0.000000 8.936500 -0.011300
       CHANNELS 3 Yrotation Xrotation Zrotation
       End Site
       {
        OFFSET 0.000000 17.073600 -0.006000
       }
      }
     }
     JOINT RightCollar
     {
      OFFSET -2.921100 9.558500 0.000000
      CHANNELS 3 Yrotation Xrotation Zrotation
      JOINT RightShoulder
      {
       OFFSET -13.519700 0.000000 0.000000
       CHANNELS 3 Yrotation Xrotation Zrotation
       JOINT RightElbow
       {
        OFFSET 0.000000 -29.696600 0.000000
        CHANNELS 3 Yrotation Xrotation Zrotation
        JOINT RightWrist
        {
         OFFSET 0.000000 -24.004700 0.000000
         CHANNELS 3 Yrotation Xrotation Zrotation
         End Site
         {
          OFFSET 0.000000 -17.728500 0.000000
         }
        }
       }
      }
     }
     JOINT LeftCollar
     {
      OFFSET 2.921100 9.558500 0.000000
      CHANNELS 3 Yrotation Xrotation Zrotation
      JOINT LeftShoulder
      {
       OFFSET 13.519700 0.000000 0.000000
       CHANNELS 3 Yrotation Xrotation Zrotation
       JOINT LeftElbow
       {
        OFFSET 0.000000 -29.696600 0.000000
        CHANNELS 3 Yrotation Xrotation Zrotation
        JOINT LeftWrist
        {
         OFFSET 0.000000 -24.004700 0.000000
         CHANNELS 3 Yrotation Xrotation Zrotation
         End Site
         {
          OFFSET 0.000000 -17.728500 0.000000
         }
        }
       }
      }
     }
    }
   }
  }
 }
 JOINT RightHip
 {
  OFFSET -7.771700 -0.012900 -0.001300
  CHANNELS 3 Yrotation Xrotation Zrotation
  JOINT RightKnee
  {
   OFFSET 0.000000 -40.869800 0.001200
   CHANNELS 3 Yrotation Xrotation Zrotation
   JOINT RightAnkle
   {
    OFFSET 0.000000 -39.717900 0.002100
    CHANNELS 3 Yrotation Xrotation Zrotation
    JOINT RightToe
    {
     OFFSET 0.000000 -4.965400 11.033500
     CHANNELS 3 Yrotation Xrotation Zrotation
     End Site
     {
      OFFSET 0.000000 -1.423100 5.872300
     }
    }
   }
  }
 }
 JOINT LeftHip
 {
  OFFSET 7.771700 -0.012900 -0.001300
  CHANNELS 3 Yrotation Xrotation Zrotation
  JOINT LeftKnee
  {
   OFFSET 0.000000 -40.869800 0.001200
   CHANNELS 3 Yrotation Xrotation Zrotation
   JOINT LeftAnkle
   {
    OFFSET 0.000000 -39.717900 0.002100
    CHANNELS 3 Yrotation Xrotation Zrotation
    JOINT LeftToe
    {
     OFFSET 0.000000 -4.965400 11.033500
     CHANNELS 3 Yrotation Xrotation Zrotation
     End Site
     {
      OFFSET 0.000000 -1.423100 5.872300
     }
    }
   }
  }
 }
}
MOTION
Frames: 8
Frame Time: 0.008333
-7.267436 54.189702 29.799617 173.294541 -39.030163 -4.328331 3.481370 20.535009 2.611848 0.402714 2.721574 0.277120 0.665009 4.443314 0.462799 2.946827 17.692225 2.216138 -0.119642 15.284325 0.212788 -0.198394 -7.438453 0.407097 -4.970561 0.334483 -1.695613 -4.564063 -0.910226 4.593219 175.298134 -77.725373 -159.321733 2.197002 4.886477 1.039850 -3.600546 -0.110995 -0.717638 8.679079 -1.673416 3.262533 152.594231 -74.323478 -173.849376 -6.598159 -6.846067 16.057644 -4.424359 -42.824048 5.022338 -116.719602 84.282577 -113.085298 0.555457 -8.479570 0.367543 0.075834 1.447025 1.035486 -3.541012 -38.456282 5.640481 68.681756 82.470790 59.100423 -4.099122 -10.957577 9.039295 0.064906 -0.061259 -0.025280
-7.260713 54.192257 29.844492 173.446858 -38.957806 -4.313077 3.476367 20.504420 2.593631 0.398075 2.713185 0.275501 0.657562 4.430388 0.460110 2.919835 17.672724 2.205128 -0.144915 15.303924 0.216066 -0.293599 -7.405117 0.441555 -5.001401 0.334104 -1.715652 -4.608538 -0.788251 4.577740 175.335938 -77.612537 -159.326379 2.251688 5.010778 1.111216 -3.595711 -0.149019 -0.728401 8.577929 -1.679368 3.285308 153.057695 -74.232437 -174.289572 -6.607414 -6.954922 15.891997 -4.546143 -42.849220 4.991876 -117.438189 84.336592 -113.789015 0.554067 -8.747064 0.062650 0.102805 1.260536 1.001658 -3.588732 -38.544653 5.412355 68.603030 82.301258 59.103429 -4.106602 -10.889637 9.031404 0.045253 -0.040763 -0.082779
-7.254245 54.195483 29.887648 173.580207 -38.892758 -4.286009 3.490685 20.474613 2.577485 0.394912 2.705390 0.274655 0.652440 4.418318 0.458752 2.902715 17.653500 2.200317 -0.170095 15.321020 0.218157 -0.397879 -7.342172 0.470051 -5.031310 0.336460 -1.742346 -4.671386 -0.672471 4.576486 175.435254 -77.516545 -159.381674 2.295149 5.117994 1.195241 -3.608154 -0.182377 -0.736812 8.468044 -1.668793 3.309613 153.566395 -74.114811 -174.773465 -6.629505 -7.036743 15.713618 -4.681780 -42.920591 4.973238 -118.058124 84.272496 -114.437595 0.621415 -8.919219 -0.131450 0.109677 1.041496 0.909201 -3.593134 -38.626498 5.172155 68.659116 82.110959 59.252306 -4.114627 -10.829668 8.984842 0.008183 -0.026351 -0.098848
-7.238378 54.202178 29.926185 173.706212 -38.860166 -4.318052 3.535927 20.468030 2.631133 0.393697 2.697970 0.274931 0.650539 4.406769 0.459232 2.899228 17.633426 2.204270 -0.217550 15.333931 0.222397 -0.487953 -7.317829 0.495320 -5.057874 0.339442 -1.778367 -4.750352 -0.541140 4.576927 175.642474 -77.419362 -159.533546 2.323064 5.199713 1.278035 -3.618463 -0.213296 -0.756869 8.341175 -1.662693 3.337509 154.071043 -73.992880 -175.253503 -6.656006 -7.106191 15.513736 -4.863791 -42.973705 5.040867 -118.426146 84.180586 -114.862920 0.707110 -9.041843 -0.194759 0.075898 0.852201 0.749480 -3.642892 -38.666064 5.056996 68.698200 81.953372 59.361431 -4.160475 -10.782852 8.941476 0.001010 -0.007409 -0.097874
-7.224263 54.207208 29.962189 173.815731 -38.822059 -4.343464 3.591092 20.450795 2.683701 0.394733 2.691051 0.276230 0.652335 4.395935 0.461412 2.911094 17.612650 2.216676 -0.267370 15.346438 0.225375 -0.582078 -7.294279 0.519071 -5.080380 0.341385 -1.818245 -4.844309 -0.394795 4.575182 175.939325 -77.322458 -159.763727 2.333660 5.249875 1.347609 -3.627938 -0.239637 -0.782634 8.264841 -1.786844 3.342063 154.362879 -73.984949 -175.589968 -6.682773 -7.184221 15.303474 -4.995053 -43.042352 5.075343 -118.822002 84.083036 -115.292695 0.770514 -9.129775 -0.237205 0.054420 0.680359 0.616131 -3.679403 -38.710958 4.950063 68.771355 81.812735 59.500315 -4.196219 -10.743136 8.899602 -0.022932 0.005609 -0.104389
-7.216753 54.217244 29.984381 173.977750 -38.845661 -4.370239 3.518707 20.493203 2.654640 0.467286 2.691292 0.295911 0.657442 4.387035 0.464981 2.936257 17.593599 2.235749 -0.317457 15.357407 0.227036 -0.676152 -7.273626 0.540469 -5.095865 0.338843 -1.855965 -4.944794 -0.237827 4.568858 176.297384 -77.224169 -160.049555 2.328866 5.274689 1.402229 -3.632516 -0.262693 -0.808432 8.162237 -1.893350 3.362672 154.610125 -73.948102 -175.875290 -6.703431 -7.289688 15.109879 -5.065119 -43.056803 5.001971 -119.471117 83.920818 -115.945590 0.895913 -9.288247 -0.240973 0.023826 0.577513 0.488938 -3.708379 -38.694917 4.765984 68.872917 81.679314 59.680167 -4.192514 -10.700380 8.857442 -0.053851 0.001640 -0.112613
-7.209033 54.222525 30.005252 174.087678 -38.842496 -4.378170 3.590595 20.505880 2.694908 0.435355 2.684112 0.289272 0.664788 4.380523 0.469621 2.970372 17.577555 2.259653 -0.365859 15.365647 0.226694 -0.787964 -7.263735 0.572737 -5.100720 0.328852 -1.888762 -5.041849 -0.079129 4.552646 176.688327 -77.126660 -160.368599 2.314694 5.286775 1.441802 -3.630142 -0.281760 -0.833612 8.053601 -1.993221 3.395906 154.790544 -73.893604 -176.099009 -6.708306 -7.438081 14.947197 -5.051434 -43.104491 4.896538 -120.281513 83.814314 -116.729497 0.971985 -9.385834 -0.226375 -0.000364 0.460721 0.380008 -3.737368 -38.707024 4.638822 68.918091 81.600701 59.775706 -4.182312 -10.668818 8.819311 -0.050665 0.000788 -0.102462
-7.197784 54.226238 30.020395 174.194351 -38.841130 -4.408127 3.660165 20.515687 2.752085 0.407271 2.678055 0.284138 0.673017 4.375455 0.474612 3.007874 17.563545 2.284935 -0.410601 15.371225 0.223834 -0.897007 -7.252666 0.604296 -5.093776 0.313348 -1.913460 -5.125445 0.071993 4.520383 177.072665 -77.036547 -160.691808 2.298395 5.293455 1.468640 -3.623648 -0.292829 -0.857864 7.959706 -2.106273 3.432682 154.905161 -73.842615 -176.266551 -6.694747 -7.633944 14.826554 -5.065455 -43.132709 4.822710 -121.142296 83.749795 -117.564538 1.006388 -9.489927 -0.223437 -0.011588 0.372093 0.292295 -3.916172 -38.718892 4.642064 69.072358 81.573529 59.870190 -4.147095 -10.636001 8.786939 -0.042217 -0.007386 -0.080065
